# xmcd CD database file
# Copyright (C) 1997 Ti Kan
# 
# Track frame offsets:
#     150
#     12020
#     25047
#     44330
#     63410
#     77535
#     100575
#     117792
#     137312
#     153620
#     179042
# 
# Disc length: 2610 seconds
# 
# Revision: 1
# Processed by: cddbd v1.4b41PL1 Copyright (c) Steve Scherf et al.
# Submitted via: DiscPlay 4.0.4
# 
DISCID=7d0a300b
DTITLE=Ian Tyson - Cowboyography
DYEAR=1900
DGENRE=
TTITLE0=Springtime
TTITLE1=Navajo Rug
TTITLE2=Summer Wages
TTITLE3=Fifty Years Ago
TTITLE4=Rockies Turn Rose
TTITLE5=Claude Dallas
TTITLE6=Own Heart's Delight
TTITLE7=The Gift
TTITLE8=Cowboy Pride
TTITLE9=Old Cheyenne
TTITLE10=The Coyote and The Cowboy
EXTD=
EXTT0=
EXTT1=
EXTT2=
EXTT3=Rockies Turn Rose\nClaude Dallas\nOwn Heart's Delight\nThe Gift\nCowbo
EXTT3=y Pride\nOld Cheyenne\nThe Coyote and The Cowboy\n
EXTT4=
EXTT5=
EXTT6=
EXTT7=
EXTT8=
EXTT9=
EXTT10=
PLAYORDER=
